<?xml version="1.0" ?><!DOCTYPE svg  PUBLIC '-//W3C//DTD SVG 1.1 Tiny//EN'  'http://www.w3.org/Graphics/SVG/1.1/DTD/svg11-tiny.dtd'><svg baseProfile="tiny" height="24px" version="1.1" viewBox="0 0 312 512" width="12px" xml:space="preserve" xmlns="http://www.w3.org/2000/svg" xmlns:xlink="http://www.w3.org/1999/xlink"><g transform="scale(3), translate(-100, -10)" id="Layer_5"><path d="M 136.50391 15.730469 C 122.46789 15.730469 111.16797 27.030376 111.16797 41.066406 L 111.16797 103.7793 L 110.33008 103.77734 L 97.943359 93.164062 L 88.203125 103.30664 L 120.22852 135.33203 L 152.78906 103.30664 L 141.58008 93.164062 L 130.97656 103.82422 L 129.79297 103.82227 L 129.79297 42.667969 C 129.79297 34.904479 136.04315 28.654297 143.80664 28.654297 L 154.94141 28.654297 C 162.7049 28.654297 168.95508 34.904479 168.95508 42.667969 L 168.95508 49.195312 L 190.60547 49.195312 L 190.60547 41.066406 C 190.60547 27.030376 179.30556 15.730469 165.26953 15.730469 L 136.50391 15.730469 z M 179.94141 55.929688 L 147.38086 87.955078 L 158.58984 98.097656 L 169.19336 87.4375 L 170.37695 87.439453 L 170.37695 148.59375 C 170.37695 156.35724 164.12677 162.60742 156.36328 162.60742 L 145.22852 162.60742 C 137.46503 162.60742 131.21484 156.35724 131.21484 148.59375 L 131.21484 142.06641 L 109.56445 142.06641 L 109.56445 150.19531 C 109.56445 164.23134 120.86436 175.53125 134.90039 175.53125 L 163.66602 175.53125 C 177.70204 175.53125 189.00195 164.23134 189.00195 150.19531 L 189.00195 87.482422 L 189.83984 87.484375 L 202.22656 98.097656 L 211.9668 87.955078 L 179.94141 55.929688 z M 295.01172 90.640625 L 326.65625 130.78711 L 291.61133 173.22461 L 320.64062 173.22461 L 339.99414 145.30078 L 359.74023 173.22461 L 386.94141 173.22461 L 352.54883 130.39453 L 384.84766 90.640625 L 358.04102 90.640625 L 339.60352 116.79492 L 322.21094 90.640625 L 295.01172 90.640625 z M 48.822266 90.923828 L 12.205078 172.94141 L 36.154297 172.94141 L 43.273438 155.55859 L 80.076172 155.55859 L 87.195312 172.94141 L 111.14453 172.94141 L 74.435547 90.923828 L 48.822266 90.923828 z M 226.42578 90.923828 L 189.80859 172.94141 L 213.75781 172.94141 L 220.87695 155.55859 L 257.67969 155.55859 L 264.79883 172.94141 L 288.74805 172.94141 L 252.03906 90.923828 L 226.42578 90.923828 z M 61.828125 110.26172 L 68.041016 125.85742 L 74.253906 141.45508 L 61.865234 141.48438 L 49.476562 141.51562 L 55.652344 125.88867 L 61.828125 110.26172 z M 239.43164 110.26172 L 245.64453 125.85742 L 251.85742 141.45508 L 239.46875 141.48438 L 227.08008 141.51562 L 233.25586 125.88867 L 239.43164 110.26172 z "/></g></svg>