<?xml version="1.0" encoding="utf-8"?>
<!-- Generator: Adobe Illustrator 26.0.2, SVG Export Plug-In . SVG Version: 6.00 Build 0)  -->
<svg version="1.1" id="Layer_1" xmlns="http://www.w3.org/2000/svg" xmlns:xlink="http://www.w3.org/1999/xlink" x="0px" y="0px"
	 viewBox="0 0 49.65 49.65" style="enable-background:new 0 0 49.65 49.65;" xml:space="preserve">
<style type="text/css">
	.st0{fill:#FFFFFF;}
	.st1{fill:none;stroke:#DC602D;stroke-width:2;stroke-miterlimit:10;}
	.st2{fill:none;stroke:#E8501D;stroke-width:2;stroke-linecap:round;stroke-miterlimit:10;}
	.st3{fill:none;stroke:#DC602D;stroke-width:2;stroke-linecap:round;stroke-miterlimit:10;}
	.st4{fill:none;stroke:#E8501D;stroke-linecap:round;stroke-miterlimit:10;}
	.st5{fill:#1E1E1C;}
	.st6{fill:none;stroke:#1E1E1C;stroke-width:1.25;stroke-linecap:round;stroke-miterlimit:10;}
	.st7{fill:none;stroke:#1E1E1C;stroke-width:1.25;stroke-miterlimit:10;}
	.st8{fill:#668037;stroke:#1E1E1C;stroke-width:1.25;stroke-miterlimit:10;}
	.st9{fill:#19351E;}
	.st10{fill:#EE8A63;stroke:#1E1E1C;stroke-miterlimit:10;}
	.st11{fill:none;stroke:#000000;stroke-width:0.25;stroke-miterlimit:10;}
</style>
<g>
	<path class="st0" d="M2.21,41.93l8.31-9.14l4.71-1.88c0,0,1.45-0.37,2.75,0.44c0,0,2.67,0.86,5.43,0.96c2.76,0.1,3.69-0.1,3.69-0.1
		l4.59-0.86c0,0,2.38-1.58,4.65,0.27c2.27,1.85,4.47,2.93,4.47,2.93l7.63,7.65v1.49L1.2,43.91l-0.03-1.02L2.21,41.93z"/>
	<g>
		<g>
			<g>
				<rect x="24.21" y="44.64" class="st1" width="1.34" height="0.29"/>
				<path class="st1" d="M24.89,45.23c-1.04,0.03-1.66-0.17-0.95-0.81"/>
				<path class="st1" d="M24.88,45.23c1.28-0.01,1.67-0.17,0.95-0.81"/>
			</g>
			<g>
				<path class="st2" d="M1.2,43.91c10.49-0.65,22.95-1.43,23.07,0"/>
				<path class="st3" d="M1.2,43.91c10.49-0.65,22.95-1.43,23.07,0"/>
			</g>
			<g>
				<path class="st4" d="M48.43,43.96c-10.49-0.65-22.95-1.43-23.07,0"/>
				<path class="st3" d="M48.43,43.96c-10.49-0.65-22.95-1.43-23.07,0"/>
			</g>
			<g>
				<path class="st5" d="M23.92,42.54c-2.35-5.28-18.04-1.21-22.49,0.23c-0.1,0.03-0.25,0.11-0.21,0.08l-0.5-0.68
					c0.45-0.4,1.31-1.38,1.76-1.88c2.77-3.02,11.24-12.35,15.49-8.93c-0.79-0.36-1.69-0.56-2.56-0.3c-2.54,0.7-4.59,2.54-6.55,4.26
					c-1.9,1.71-3.89,3.77-5.7,5.62c-0.62,0.62-1.26,1.37-1.99,1.95l-0.5-0.68c0.25-0.16,0.34-0.16,0.48-0.22
					C5.61,40.61,22.24,36.93,23.92,42.54L23.92,42.54z"/>
			</g>
			<g>
				<path class="st5" d="M25.64,42.53c2.37-5.6,18.17-1.88,22.86-0.53c0.14,0.06,0.23,0.06,0.48,0.22l-0.5,0.68
					c-0.72-0.58-1.37-1.33-1.99-1.95c-1.8-1.85-3.79-3.9-5.7-5.62c-1.96-1.71-4.01-3.56-6.55-4.26c-0.86-0.26-1.78-0.04-2.56,0.29
					c4.29-3.39,12.7,5.9,15.49,8.94c0.45,0.5,1.31,1.47,1.76,1.88l-0.5,0.68c0.03,0.03-0.12-0.05-0.21-0.08
					c-5.6-1.74-11.53-3.03-17.41-2.77c-1.89,0.17-4.26,0.59-5.07,2.54C25.72,42.62,25.62,42.59,25.64,42.53L25.64,42.53z"/>
			</g>
			<g>
				<line class="st6" x1="24.83" y1="39.48" x2="24.98" y2="15.98"/>
				<path class="st7" d="M29.04,27.05c-0.23,0.41-0.62,0.95-1.21,1.25c-1.12,0.58-2.25-0.03-2.69-0.32"/>
				<path class="st7" d="M20.83,24.33c0.26,0.45,0.68,1.05,1.33,1.39c1.23,0.64,2.48-0.04,2.97-0.36"/>
				<g>
					<path class="st8" d="M21.34,21.1c2.1,1.68,0.97,4.23-1,4.43c-1.32,0.13-3-1.38-3.09-3.33c-0.1-2.22,1-4.43,1-4.43
						C18.2,17.65,19.33,19.5,21.34,21.1z"/>
					<g>
						<path class="st9" d="M18.83,20.09c0.43,1.66,0.93,4.03,2.7,4.63l-0.26,0.7C19.29,24.47,19.07,22,18.83,20.09L18.83,20.09z"/>
					</g>
					<path class="st7" d="M21.34,21.1c2.1,1.68,0.97,4.23-1,4.43c-1.32,0.13-3-1.38-3.09-3.33c-0.1-2.22,1-4.43,1-4.43
						C18.2,17.65,19.33,19.5,21.34,21.1z"/>
					<g>
						<path class="st9" d="M19.87,23.56c0.57-0.21,1.07-0.64,1.45-1.21c-0.14,0.65-0.48,1.32-1.04,1.83L19.87,23.56L19.87,23.56z"/>
					</g>
					<g>
						<path class="st9" d="M19.28,22.34c0.4-0.13,0.69-0.52,0.74-1.02c0.13,0.51-0.05,1.1-0.47,1.44
							C19.55,22.76,19.28,22.34,19.28,22.34L19.28,22.34z"/>
					</g>
					<g>
						<path class="st9" d="M19.81,23.59c-0.61,0.09-1.26-0.34-1.38-0.93c0.18,0.19,0.4,0.34,0.62,0.36c0.21,0.03,0.4-0.05,0.58-0.16
							L19.81,23.59L19.81,23.59z"/>
					</g>
				</g>
				<g>
					<path class="st8" d="M28.7,23.58c-2.04,1.63-0.94,4.11,0.97,4.29c1.28,0.13,2.91-1.34,3-3.23c0.1-2.15-0.97-4.29-0.97-4.29
						C31.75,20.23,30.65,22.02,28.7,23.58z"/>
					<g>
						<path class="st9" d="M31.14,22.6c-0.22,1.86-0.44,4.26-2.36,5.19l-0.26-0.7C30.23,26.5,30.72,24.21,31.14,22.6L31.14,22.6z"/>
					</g>
					<path class="st7" d="M28.7,23.58c-2.04,1.63-0.94,4.11,0.97,4.29c1.28,0.13,2.91-1.34,3-3.23c0.1-2.15-0.97-4.29-0.97-4.29
						C31.75,20.23,30.65,22.02,28.7,23.58z"/>
					<g>
						<path class="st9" d="M29.73,26.58c-0.54-0.5-0.87-1.15-1-1.79c0.37,0.55,0.87,0.96,1.42,1.16L29.73,26.58L29.73,26.58z"/>
					</g>
					<g>
						<path class="st9" d="M30.44,25.2c-0.41-0.33-0.58-0.91-0.45-1.4c0.05,0.49,0.34,0.85,0.73,0.98L30.44,25.2L30.44,25.2z"/>
					</g>
					<g>
						<path class="st9" d="M30.38,25.28c0.39,0.28,0.82,0.17,1.15-0.19c-0.11,0.58-0.75,0.99-1.34,0.91
							C30.19,26,30.38,25.28,30.38,25.28L30.38,25.28z"/>
					</g>
				</g>
				<path class="st10" d="M25.14,15.6L25.14,15.6c-2.61,0-4.72-2.12-4.72-4.72V4.9c0.94-0.14,1.94,0.82,2.77,1.97
					c0.44-1.05,1.07-1.89,1.98-2.45c0.76,0.49,1.28,1.36,1.66,2.46c0.83-1.3,1.79-2.16,3.05-1.98v5.98
					C29.88,13.48,27.76,15.6,25.14,15.6L25.14,15.6"/>
			</g>
		</g>
	</g>
</g>
<path class="st11" d="M25.23,42.9c0.18-0.49,4.24-0.79,4.24-0.79l19.31,0.79c1.47,1.09-0.14,2.64-1.01,2.05
	c-0.88-0.6-20.93-0.81-20.99-0.67c1.64,1.82-1.85,1.97-1.8,1.96c-3.48-0.35-2.24-1.77-2-1.82c-0.79-0.99-22.06,0.51-22.06,0.51
	s-1.71-1.19,0.25-2.04l17.47-0.78c0,0,6.01-0.12,6.16,0.79C24.8,42.9,25.02,43.48,25.23,42.9z"/>
</svg>
