<?xml version="1.0" encoding="UTF-8" standalone="no"?>
<!DOCTYPE svg PUBLIC "-//W3C//DTD SVG 1.1//EN" "http://www.w3.org/Graphics/SVG/1.1/DTD/svg11.dtd">
<svg version="1.1" xmlns="http://www.w3.org/2000/svg" xmlns:xlink="http://www.w3.org/1999/xlink" preserveAspectRatio="xMidYMid meet" viewBox="0 0 130 1494" width="130" height="1494"><defs><path d="M82.42 34.63L113.51 67.63L112.87 68.32L113.51 69L82.42 102L113.51 135L112.87 135.68L113.51 136.36L82.42 169.37L113.51 202.37L113.29 202.61L113.51 202.84L82.42 235.84L113.51 268.85L112.87 269.54L113.51 270.23L82.42 303.23L113.51 336.23L113.32 336.44L113.51 336.65L82.42 369.66L113.51 402.66L113.5 402.67L113.51 402.68L82.42 435.68L113.51 468.69L113.37 468.84L113.51 469L82.42 502L113.51 535L112.87 535.68L113.51 536.36L82.42 569.37L113.51 602.37L112.87 603.05L113.51 603.73L82.42 636.74L113.51 669.74L96.1 688.22L65 655.22L33.9 688.22L16.49 669.74L47.58 636.74L16.49 603.73L17.13 603.05L16.49 602.37L47.58 569.37L16.49 536.36L17.13 535.68L16.49 535L47.58 502L16.49 469L16.63 468.84L16.49 468.69L47.58 435.68L16.49 402.68L16.5 402.67L16.49 402.66L47.58 369.66L16.49 336.65L16.68 336.44L16.49 336.23L47.58 303.23L16.49 270.23L17.14 269.54L16.49 268.85L47.58 235.84L16.49 202.84L16.71 202.61L16.49 202.37L47.58 169.37L16.49 136.36L17.13 135.68L16.49 135L47.58 102L16.49 69L17.13 68.32L16.49 67.63L47.58 34.63L16.49 1.63L33.9 -16.85L65 16.15L96.1 -16.85L113.51 1.63L82.42 34.63ZM65 618.25L79.33 603.05L65 587.85L50.68 603.05L65 618.25ZM65 550.89L79.33 535.68L65 520.48L50.68 535.68L65 550.89ZM65 483.52L78.83 468.84L65 454.17L51.17 468.84L65 483.52ZM65 417.2L78.69 402.67L65 388.14L51.31 402.67L65 417.2ZM65 351.17L78.88 336.44L65 321.71L51.12 336.44L65 351.17ZM65 284.75L79.33 269.54L65 254.33L50.67 269.54L65 284.75ZM65 217.36L78.9 202.61L65 187.85L51.1 202.61L65 217.36ZM65 150.89L79.33 135.68L65 120.48L50.68 135.68L65 150.89ZM65 83.52L79.33 68.32L65 53.11L50.68 68.32L65 83.52Z" id="e4ur9zoxZy"></path><path d="M82.42 703.41L113.51 736.41L112.87 737.1L113.51 737.78L82.42 770.78L113.51 803.78L112.87 804.46L113.51 805.14L82.42 838.15L113.51 871.15L113.29 871.39L113.51 871.62L82.42 904.62L113.51 937.63L112.87 938.32L113.51 939.01L82.42 972.01L113.51 1005.01L113.32 1005.22L113.51 1005.43L82.42 1038.43L113.51 1071.44L113.5 1071.45L113.51 1071.46L82.42 1104.46L113.51 1137.47L113.37 1137.62L113.51 1137.78L82.42 1170.78L113.51 1203.78L112.87 1204.46L113.51 1205.14L82.42 1238.15L113.51 1271.15L112.87 1271.83L113.51 1272.51L82.42 1305.52L113.51 1338.52L96.1 1357L65 1324L33.9 1357L16.49 1338.52L47.58 1305.52L16.49 1272.51L17.13 1271.83L16.49 1271.15L47.58 1238.15L16.49 1205.14L17.13 1204.46L16.49 1203.78L47.58 1170.78L16.49 1137.78L16.63 1137.62L16.49 1137.47L47.58 1104.46L16.49 1071.46L16.5 1071.45L16.49 1071.44L47.58 1038.43L16.49 1005.43L16.68 1005.22L16.49 1005.01L47.58 972.01L16.49 939.01L17.14 938.32L16.49 937.63L47.58 904.62L16.49 871.62L16.71 871.39L16.49 871.15L47.58 838.15L16.49 805.14L17.13 804.46L16.49 803.78L47.58 770.78L16.49 737.78L17.13 737.1L16.49 736.41L47.58 703.41L16.49 670.41L33.9 651.93L65 684.93L96.1 651.93L113.51 670.41L82.42 703.41ZM65 1287.03L79.33 1271.83L65 1256.63L50.68 1271.83L65 1287.03ZM65 1219.67L79.33 1204.46L65 1189.26L50.68 1204.46L65 1219.67ZM65 1152.3L78.83 1137.62L65 1122.95L51.17 1137.62L65 1152.3ZM65 1085.98L78.69 1071.45L65 1056.92L51.31 1071.45L65 1085.98ZM65 1019.95L78.88 1005.22L65 990.49L51.12 1005.22L65 1019.95ZM65 953.53L79.33 938.32L65 923.1L50.67 938.32L65 953.53ZM65 886.14L78.9 871.39L65 856.63L51.1 871.39L65 886.14ZM65 819.67L79.33 804.46L65 789.26L50.68 804.46L65 819.67ZM65 752.3L79.33 737.1L65 721.89L50.68 737.1L65 752.3Z" id="b1gY3iYS9D"></path><path d="M82.42 1373.43L113.51 1406.44L112.87 1407.12L113.51 1407.8L82.42 1440.8L113.51 1473.8L112.87 1474.49L113.51 1475.17L82.42 1508.17L113.51 1541.17L113.29 1541.41L113.51 1541.64L82.42 1574.64L113.51 1607.65L112.87 1608.34L113.51 1609.03L82.42 1642.03L113.51 1675.03L113.32 1675.24L113.51 1675.45L82.42 1708.46L113.51 1741.46L113.5 1741.47L113.51 1741.48L82.42 1774.49L113.51 1807.49L113.37 1807.64L113.51 1807.8L82.42 1840.8L113.51 1873.8L112.87 1874.49L113.51 1875.17L82.42 1908.17L113.51 1941.17L112.87 1941.85L113.51 1942.53L82.42 1975.54L113.51 2008.54L96.1 2027.02L65 1994.02L33.9 2027.02L16.49 2008.54L47.58 1975.54L16.49 1942.53L17.13 1941.85L16.49 1941.17L47.58 1908.17L16.49 1875.17L17.13 1874.49L16.49 1873.8L47.58 1840.8L16.49 1807.8L16.63 1807.64L16.49 1807.49L47.58 1774.49L16.49 1741.48L16.5 1741.47L16.49 1741.46L47.58 1708.46L16.49 1675.45L16.68 1675.24L16.49 1675.03L47.58 1642.03L16.49 1609.03L17.14 1608.34L16.49 1607.65L47.58 1574.64L16.49 1541.64L16.71 1541.41L16.49 1541.17L47.58 1508.17L16.49 1475.17L17.13 1474.49L16.49 1473.8L47.58 1440.8L16.49 1407.8L17.13 1407.12L16.49 1406.44L47.58 1373.43L16.49 1340.43L33.9 1321.95L65 1354.95L96.1 1321.95L113.51 1340.43L82.42 1373.43ZM65 1957.06L79.33 1941.85L65 1926.65L50.68 1941.85L65 1957.06ZM65 1889.69L79.33 1874.49L65 1859.28L50.68 1874.49L65 1889.69ZM65 1822.32L78.83 1807.64L65 1792.97L51.17 1807.64L65 1822.32ZM65 1756L78.69 1741.47L65 1726.94L51.31 1741.47L65 1756ZM65 1689.97L78.88 1675.24L65 1660.51L51.12 1675.24L65 1689.97ZM65 1623.55L79.33 1608.34L65 1593.13L50.67 1608.34L65 1623.55ZM65 1556.16L78.9 1541.41L65 1526.65L51.1 1541.41L65 1556.16ZM65 1489.69L79.33 1474.49L65 1459.28L50.68 1474.49L65 1489.69ZM65 1422.32L79.33 1407.12L65 1391.91L50.68 1407.12L65 1422.32Z" id="d28F6QDlRA"></path></defs><g><g><g><use xlink:href="#e4ur9zoxZy" opacity="1" fill="#ed8a63" fill-opacity="1"></use></g><g><use xlink:href="#b1gY3iYS9D" opacity="1" fill="#ed8a63" fill-opacity="1"></use></g><g><use xlink:href="#d28F6QDlRA" opacity="1" fill="#ed8a63" fill-opacity="1"></use></g></g></g></svg>