<svg  id="big_logo" xmlns="http://www.w3.org/2000/svg" xml:space="preserve" width="90%" height="90%" version="1.1" style="shape-rendering:geometricPrecision; text-rendering:geometricPrecision; image-rendering:optimizeQuality; fill-rule:evenodd; clip-rule:evenodd"
                    viewBox="0 0 27778 27778"
                    xmlns:xlink="http://www.w3.org/1999/xlink">
  
  
                    <g transform="translate(2000,0)">

                    <circle  transform="translate(10000, -2000)" cx="2000" cy="15000" r="40%" stroke="#000" stroke-width="450" fill="#ffffff" fill-opacity="1" />
                        <g>
                        <path transform="translate(7000.000000,22000.000000) scale(14) scale(0.100000,-.100000)" fill="#DB2B39" d="M5342 12780 c-40 -25 -70 -72 -78 -126 l-6 -42 -44 33 c-53 41 -105
        59 -144 50 -70 -15 -130 -168 -97 -247 8 -19 40 -76 71 -128 50 -83 86 -169
        86 -206 0 -10 -8 -10 -35 2 -68 28 -138 15 -184 -35 l-27 -29 -69 23 c-41 14
        -120 28 -190 35 -154 14 -237 28 -304 51 -30 11 -55 18 -56 17 -8 -9 20 -145
        44 -215 68 -197 208 -356 395 -448 88 -43 89 -44 63 -56 -31 -14 -36 -30 -7
        -22 16 4 20 0 20 -20 0 -35 -22 -54 -72 -62 -50 -8 -64 -18 -85 -58 l-15 -30
        38 6 c22 3 56 9 77 13 29 5 36 4 33 -7 -2 -8 -7 -26 -10 -41 -5 -21 -12 -28
        -30 -28 -12 0 -48 -5 -79 -11 -56 -12 -57 -12 -57 -47 l0 -34 48 6 c26 4 60 9
        76 13 24 4 28 3 23 -12 -4 -9 -7 -25 -7 -35 0 -21 -51 -40 -108 -40 -33 0 -35
        -3 -47 -54 -7 -32 -9 -31 106 -10 l36 6 -6 -38 c-6 -38 -8 -39 -56 -46 -92
        -13 -95 -15 -95 -54 0 -33 2 -35 28 -30 15 3 46 8 70 11 l42 7 0 -34 c0 -33
        -2 -35 -51 -46 -28 -7 -61 -12 -74 -12 -18 0 -24 -7 -30 -36 -3 -20 -4 -38 -2
        -40 2 -3 24 0 48 5 74 17 99 14 99 -11 0 -38 -14 -48 -80 -59 -35 -5 -67 -12
        -72 -15 -4 -3 -8 -20 -8 -38 l0 -33 50 8 c28 4 59 11 70 14 24 8 31 -6 24 -42
        -5 -28 -10 -30 -79 -42 -60 -11 -74 -17 -79 -35 -13 -48 -9 -54 32 -46 20 4
        54 10 75 13 l38 6 -3 -37 c-3 -40 4 -36 -120 -57 -36 -6 -38 -8 -38 -42 0 -40
        -5 -39 113 -17 l37 7 0 -37 c0 -38 1 -38 -85 -51 -71 -11 -75 -14 -75 -51 0
        -33 2 -35 28 -30 15 3 49 8 76 12 48 7 49 6 43 -17 -4 -13 -7 -29 -7 -35 0
        -11 -84 -34 -125 -34 -19 0 -24 -6 -27 -36 -5 -43 1 -48 49 -35 64 18 93 14
        93 -11 0 -38 -14 -48 -81 -59 -35 -6 -68 -14 -72 -18 -5 -5 -7 -22 -5 -38 l3
        -29 68 11 67 11 0 -26 c0 -39 -10 -46 -82 -60 -64 -13 -67 -14 -73 -48 -3 -19
        -5 -36 -2 -38 2 -2 19 1 38 6 18 6 49 10 67 10 33 0 33 -1 27 -32 -4 -18 -8
        -34 -9 -35 -1 -1 -30 -6 -65 -12 -67 -11 -81 -21 -81 -58 0 -18 6 -23 28 -23
        15 0 43 4 61 10 19 5 37 8 39 5 2 -2 2 -19 -2 -38 -6 -33 -8 -34 -76 -47 -68
        -13 -70 -14 -76 -47 -4 -19 -4 -36 -2 -38 2 -3 20 0 39 5 18 6 47 10 62 10 27
        0 28 -2 22 -32 -4 -18 -8 -34 -10 -36 -1 -1 -31 -7 -66 -13 -35 -6 -67 -13
        -70 -17 -4 -4 -10 -22 -14 -40 -6 -30 -5 -33 11 -29 11 3 41 8 68 12 47 6 49
        6 43 -17 -4 -13 -7 -28 -7 -34 0 -13 -74 -34 -119 -34 -17 0 -31 -2 -31 -4 0
        -2 -7 -21 -16 -41 l-15 -38 43 6 c24 3 58 9 75 13 l33 6 -14 -38 c-13 -38 -14
        -39 -92 -54 -75 -15 -80 -18 -96 -50 -19 -41 -12 -46 47 -31 24 6 55 11 69 11
        24 0 25 -1 11 -32 -16 -40 -22 -43 -113 -59 -71 -12 -74 -14 -94 -52 l-20 -40
        39 7 c76 14 123 18 123 11 0 -4 -9 -23 -21 -41 -13 -22 -28 -34 -43 -34 -13 0
        -48 -5 -80 -11 -52 -11 -59 -16 -77 -50 -22 -44 -23 -43 55 -28 31 7 59 9 62
        6 3 -3 -6 -21 -20 -40 -22 -29 -35 -36 -94 -47 -63 -12 -70 -15 -90 -51 -25
        -43 -22 -44 43 -29 l40 9 -52 -50 c-32 -31 -60 -49 -75 -49 -18 0 -30 -11 -46
        -39 -12 -21 -19 -40 -16 -43 8 -9 -148 -141 -256 -218 -326 -230 -656 -359
        -1080 -420 -577 -82 -1141 -278 -1503 -520 -151 -101 -205 -154 -403 -401
        -220 -275 -271 -350 -356 -524 -76 -156 -109 -248 -131 -375 -41 -229 -48
        -364 -47 -901 0 -521 -3 -562 -52 -774 -50 -220 -51 -229 -22 -287 30 -59 49
        -148 59 -268 7 -96 23 -130 60 -130 20 0 33 12 58 53 133 210 245 489 282 701
        20 118 19 178 -5 278 -61 253 -43 704 41 1046 49 198 104 315 170 363 l32 23
        -7 -50 c-15 -107 -27 -468 -21 -629 8 -201 -9 -609 -30 -748 -21 -139 -61
        -249 -185 -512 -59 -126 -120 -268 -134 -314 -32 -102 -46 -232 -35 -326 28
        -239 31 -314 26 -555 -5 -214 -42 -782 -62 -939 -3 -24 -44 -159 -91 -300
        -115 -344 -138 -438 -138 -571 l-1 -105 47 -80 c25 -44 54 -106 63 -137 l16
        -57 -52 -86 c-77 -129 -113 -225 -113 -308 -1 -65 1 -70 31 -97 57 -51 84 -54
        523 -54 365 -1 411 1 464 17 66 21 116 63 116 100 0 62 -74 167 -192 273 -73
        67 -119 192 -149 404 -16 116 -17 748 -1 915 37 390 77 637 144 884 48 176 53
        138 38 -293 -7 -204 -11 -456 -7 -561 4 -161 49 -725 75 -944 l7 -65 96 -73
        c75 -56 102 -83 119 -118 29 -59 23 -88 -40 -209 -28 -52 -50 -99 -50 -106 0
        -20 102 -58 200 -74 136 -23 406 -30 615 -17 172 11 314 27 323 35 2 3 -12 43
        -31 89 -87 213 -223 379 -372 454 -57 28 -89 52 -112 82 -54 70 -64 121 -74
        371 -8 225 -8 225 -49 360 -99 326 -133 537 -134 840 0 228 12 354 60 605 78
        409 250 944 472 1465 79 184 200 451 210 462 10 10 118 -30 269 -101 198 -92
        263 -105 503 -98 252 8 366 34 514 117 l57 33 -6 -84 c-3 -46 -17 -406 -30
        -799 -17 -479 -30 -755 -41 -835 -21 -152 -21 -471 0 -800 20 -301 20 -635 1
        -775 -7 -58 -25 -148 -40 -200 -53 -193 -45 -309 34 -494 l39 -91 -55 -65
        c-143 -172 -169 -344 -61 -398 14 -6 50 -17 78 -22 72 -14 338 -13 479 2 107
        10 118 14 142 40 43 45 46 109 8 179 -7 13 -36 49 -64 79 -49 51 -53 59 -58
        115 -2 33 1 148 9 255 15 219 12 257 -38 397 -42 120 -47 208 -17 338 19 89
        23 141 30 460 8 380 18 480 61 612 l23 68 7 -85 c48 -604 55 -987 24 -1327
        -12 -135 -17 -256 -14 -365 l4 -163 58 -145 c31 -80 63 -174 71 -209 l13 -64
        -34 -54 c-85 -132 -148 -292 -142 -360 l3 -38 125 -8 c110 -6 960 0 968 8 6 5
        -90 239 -126 310 -34 65 -124 170 -164 191 -24 13 -81 218 -112 405 -54 327
        -83 769 -71 1119 11 348 17 395 71 555 42 125 48 152 52 251 5 118 -2 166 -45
        306 l-26 87 22 153 c11 84 35 279 51 433 72 664 121 968 206 1272 61 220 114
        334 240 519 94 139 133 211 166 310 19 58 23 88 22 189 -1 103 -9 157 -54 375
        -99 487 -84 602 145 1080 158 329 197 427 231 570 35 149 40 502 13 915 -29
        450 -101 962 -215 1533 -29 150 -54 275 -54 279 0 3 8 -1 18 -10 69 -63 217
        -79 478 -53 227 23 300 21 419 -10 211 -54 299 -43 402 49 32 29 93 73 134 99
        87 55 109 82 109 135 0 58 -27 159 -60 228 -59 123 -237 250 -416 295 -69 18
        -83 26 -153 89 -160 146 -251 245 -280 308 -71 149 -192 215 -331 180 -30 -8
        -62 -17 -71 -21 -18 -8 -58 72 -142 289 -96 246 -117 279 -214 329 -42 21 -71
        20 -111 -4z"/>
                    
                        </g>
                        

                        <g>
                        <path transform="translate(5000.000000,10000.000000) scale(80)" fill="#DB2B39" d="M22.07-0.47L22.07-0.47L22.07-0.47Q20.08 0.78 17.54 0.78L17.54 0.78L17.54 0.78Q15 0.78 13.01-0.47L13.01-0.47L13.01-0.47Q11.02 0.78 9.32 0.78L9.32 0.78L9.32 0.78Q7.62 0.78 6.52 0.49L6.52 0.49L6.52 0.49Q5.43 0.20 4.61-0.31L4.61-0.31L4.61-0.31Q2.93-1.33 2.93-2.85L2.93-2.85L2.93-2.85Q2.93-3.63 3.36-4.22L3.36-4.22L3.36-4.22Q4.22-3.55 5.55-3.55L5.55-3.55L5.55-3.55Q9.02-3.55 10.35-6.52L10.35-6.52L10.35-25.63L10.35-25.63Q10.35-27.42 9.61-28.28L9.61-28.28L9.61-28.28Q8.44-29.73 5.59-31.13L5.59-31.13L5.59-31.13Q8.24-32.34 9.02-33.28L9.02-33.28L9.02-33.28Q10.35-34.80 10.35-36.72L10.35-36.72L10.35-53.20L10.35-53.20Q9.02-56.21 5.55-56.21L5.55-56.21L5.55-56.21Q4.22-56.21 3.36-55.55L3.36-55.55L3.36-55.55Q2.93-56.13 2.93-56.89L2.93-56.89L2.93-56.89Q2.93-57.66 3.38-58.32L3.38-58.32L3.38-58.32Q3.83-58.98 4.61-59.45L4.61-59.45L4.61-59.45Q6.41-60.55 8.73-60.55L8.73-60.55L8.73-60.55Q11.05-60.55 13.01-59.26L13.01-59.26L13.01-59.26Q15.04-60.55 17.54-60.55L17.54-60.55L17.54-60.55Q20.04-60.55 22.07-59.26L22.07-59.26L22.07-59.26Q26.48-60.94 31.86-60.94L31.86-60.94L31.86-60.94Q37.23-60.94 40.86-59.96L40.86-59.96L40.86-59.96Q44.49-58.98 47.11-57.19L47.11-57.19L47.11-57.19Q52.38-53.55 53.67-47.07L53.67-47.07L53.67-47.07Q54.18-44.18 57.38-42.70L57.38-42.70L57.38-42.70Q54.34-40.98 53.40-37.23L53.40-37.23L53.40-37.23Q51.48-29.49 43.83-27.58L43.83-27.58L43.83-27.58Q47.77-26.52 50.27-23.24L50.27-23.24L50.27-23.24Q52.85-19.84 52.85-15.23L52.85-15.23L52.85-11.33L52.85-11.33Q52.85-5.70 56.48-4.06L56.48-4.06L56.48-4.06Q57.58-3.55 58.87-3.55L58.87-3.55L58.87-3.55Q60.16-3.55 61.02-4.22L61.02-4.22L61.02-4.22Q61.45-3.63 61.45-2.87L61.45-2.87L61.45-2.87Q61.45-2.11 61.05-1.45L61.05-1.45L61.05-1.45Q60.66-0.78 60-0.31L60-0.31L60-0.31Q58.59 0.78 56.72 0.78L56.72 0.78L56.72 0.78Q54.84 0.78 53.05-0.23L53.05-0.23L53.05-0.23Q49.77 1.56 46.91 0.12L46.91 0.12L46.91 0.12Q45.82 0.78 44.61 0.78L44.61 0.78L44.61 0.78Q43.40 0.78 42.29 0.23L42.29 0.23L42.29 0.23Q41.17-0.31 40.31-1.56L40.31-1.56L40.31-1.56Q38.48-4.26 38.48-9.84L38.48-9.84L38.48-12.73L38.48-12.73Q38.48-21.76 33.32-24.45L33.32-24.45L33.32-24.45Q31.60-25.35 29.30-25.35L29.30-25.35L24.73-25.35L24.73-6.33L24.73-6.33Q25.78-3.55 28.75-3.55L28.75-3.55L28.75-3.55Q30.08-3.55 30.94-4.22L30.94-4.22L30.94-4.22Q31.37-3.63 31.37-2.50L31.37-2.50L31.37-2.50Q31.37-1.37 30.14-0.29L30.14-0.29L30.14-0.29Q28.91 0.78 26.45 0.78L26.45 0.78L26.45 0.78Q23.98 0.78 22.07-0.47zM32.23-55.74L32.23-55.74L32.23-55.74Q24.73-55.74 24.73-49.92L24.73-49.92L24.73-33.95L24.73-33.95Q24.73-31.91 26.33-31.21L26.33-31.21L26.33-31.21Q27.85-30.55 30.84-30.55L30.84-30.55L30.84-30.55Q33.83-30.55 35.02-30.88L35.02-30.88L35.02-30.88Q36.21-31.21 37.07-32.03L37.07-32.03L37.07-32.03Q38.83-33.71 38.83-37.66L38.83-37.66L38.83-49.06L38.83-49.06Q38.83-53.95 34.77-55.31L34.77-55.31L34.77-55.31Q33.55-55.74 32.23-55.74zM41.45-53.24L41.45-53.24L41.45-53.24Q42.66-50.51 42.66-44.49L42.66-44.49L42.66-44.49Q42.66-34.14 41.68-32.11L41.68-32.11L41.68-32.11Q43.83-32.54 44.77-37.85L44.77-37.85L45.08-39.45L45.08-39.45Q45.51-41.99 47.58-42.70L47.58-42.70L47.58-42.70Q46.05-43.20 45.63-43.91L45.63-43.91L45.63-43.91Q45.16-44.73 44.79-46.70L44.79-46.70L44.79-46.70Q44.41-48.67 44.02-49.88L44.02-49.88L44.02-49.88Q43.63-51.09 43.20-51.80L43.20-51.80L43.20-51.80Q42.46-53.05 41.45-53.24zM14.10-15.43L14.10-10.35L14.10-10.35Q16.05-11.09 16.25-15.47L16.25-15.47L16.25-15.47Q16.48-19.84 16.48-27.58L16.48-27.58L16.48-27.58Q16.48-35.31 16.46-37.87L16.46-37.87L16.46-37.87Q16.45-40.43 16.41-41.99L16.41-41.99L16.41-41.99Q16.29-46.60 15.53-47.56L15.53-47.56L15.53-47.56Q14.77-48.52 14.10-48.83L14.10-48.83L14.10-48.83Q14.10-35.23 13.63-33.36L13.63-33.36L13.63-33.36Q13.09-31.80 10.98-31.13L10.98-31.13L10.98-31.13Q13.32-30.31 13.63-29.14L13.63-29.14L13.63-29.14Q14.10-27.27 14.10-15.43L14.10-15.43zM41.05-21.05L41.05-21.05L41.05-21.05Q42.62-19.30 42.62-16.76L42.62-16.76L42.62-11.60L42.62-11.60Q42.62-5.12 45.20-4.69L45.20-4.69L45.20-4.69Q45.90-4.57 46.56-4.73L46.56-4.73L46.56-4.73Q45.16-6.91 45.16-9.34L45.16-9.34L45.16-14.80L45.16-14.80Q45.16-17.89 44.30-19.18L44.30-19.18L44.30-19.18Q42.81-21.37 41.05-21.05"/>
                    
                        </g>

                        <g>
                        <path transform="translate(16000.000000,18000.000000) scale(80)" fill="#DB2B39" d="M43.98-0.94L43.98-0.94L43.98-0.94Q37.97 1.17 32.09 1.17L32.09 1.17L32.09 1.17Q26.21 1.17 21.82-0.53L21.82-0.53L21.82-0.53Q17.42-2.23 14.06-5.47L14.06-5.47L14.06-5.47Q6.91-12.30 5.55-24.41L5.55-24.41L5.55-24.41Q4.96-29.49 1.56-31.13L1.56-31.13L1.56-31.13Q4.96-32.73 5.59-37.87L5.59-37.87L5.59-37.87Q6.21-43.01 8.55-47.36L8.55-47.36L8.55-47.36Q10.90-51.72 14.57-54.77L14.57-54.77L14.57-54.77Q22.07-60.94 33.36-60.94L33.36-60.94L33.36-60.94Q41.13-60.94 46.41-57.38L46.41-57.38L46.41-57.38Q51.29-54.10 52.46-48.83L52.46-48.83L52.46-48.83Q53.09-45.86 54.06-45.16L54.06-45.16L54.06-45.16Q54.45-44.84 55.04-44.57L55.04-44.57L55.04-44.57Q52.73-41.13 50.35-41.72L50.35-41.72L50.35-41.72Q49.77-41.84 49.26-42.03L49.26-42.03L49.26-42.03Q48.40-40.31 47.03-39.18L47.03-39.18L47.03-39.18Q45.66-38.05 44.00-37.87L44.00-37.87L44.00-37.87Q42.34-37.70 41.91-38.09L41.91-38.09L41.91-38.09Q42.89-39.53 42.89-41.76L42.89-41.76L42.89-41.76Q42.89-42.03 42.77-42.46L42.77-42.46L42.77-42.46Q42.58-42.38 42.42-42.38L42.42-42.38L42.42-42.38Q42.27-42.38 41.84-42.36L41.84-42.36L41.84-42.36Q41.41-42.34 40.63-42.66L40.63-42.66L40.63-42.66Q39.84-42.97 39.18-43.52L39.18-43.52L39.18-43.52Q37.70-44.69 37.62-46.09L37.62-46.09L37.62-46.09Q37.62-46.41 37.73-46.72L37.73-46.72L37.73-46.72Q40.16-45.98 42.34-47.81L42.34-47.81L42.34-47.81Q43.83-49.10 43.75-50.55L43.75-50.55L43.75-50.55Q43.67-51.99 42.95-52.95L42.95-52.95L42.95-52.95Q42.23-53.91 40.90-54.61L40.90-54.61L40.90-54.61Q37.93-56.17 33.28-56.17L33.28-56.17L33.28-56.17Q22.70-56.17 22.70-43.91L22.70-43.91L22.70-37.42L22.70-37.42Q22.70-33.01 26.99-31.13L26.99-31.13L26.99-31.13Q22.70-29.06 22.70-24.38L22.70-24.38L22.70-13.91L22.70-13.91Q22.70-8.95 24.57-6.54L24.57-6.54L24.57-6.54Q26.45-4.14 30.51-4.14L30.51-4.14L30.51-4.14Q35.31-4.14 36.88-8.44L36.88-8.44L36.88-8.44Q37.38-9.84 37.38-11.68L37.38-11.68L37.38-20.70L37.38-20.70Q36.64-21.45 35.31-21.45L35.31-21.45L35.31-21.45Q33.98-21.45 33.13-20.78L33.13-20.78L33.13-20.78Q32.70-21.21 32.70-22.42L32.70-22.42L32.70-22.42Q32.70-23.63 33.71-24.71L33.71-24.71L33.71-24.71Q34.73-25.78 36.82-25.78L36.82-25.78L36.82-25.78Q38.91-25.78 40.27-24.65L40.27-24.65L40.27-24.65Q42.15-25.78 44.30-25.78L44.30-25.78L44.30-25.78Q46.45-25.78 48.20-24.61L48.20-24.61L48.20-24.61Q49.84-25.78 51.29-25.78L51.29-25.78L51.29-25.78Q52.73-25.78 53.55-25.51L53.55-25.51L53.55-25.51Q54.38-25.23 55-24.77L55-24.77L55-24.77Q56.41-23.71 56.41-22.15L56.41-22.15L56.41-22.15Q56.41-21.21 55.98-20.78L55.98-20.78L55.98-20.78Q55.08-21.45 53.67-21.45L53.67-21.45L53.67-21.45Q52.27-21.45 50.94-18.79L50.94-18.79L50.94-5.98L50.94-5.98Q51.68-3.55 54.18-3.55L54.18-3.55L54.18-3.55Q55.12-3.55 55.98-4.22L55.98-4.22L55.98-4.22Q56.41-3.63 56.41-2.85L56.41-2.85L56.41-2.85Q56.41-1.25 54.65-0.23L54.65-0.23L54.65-0.23Q52.89 0.78 49.63 0.78L49.63 0.78L49.63 0.78Q46.37 0.78 43.98-0.94zM14.38-10.35L14.38-10.35L14.38-10.35Q14.96-10.59 14.96-11.17L14.96-11.17L14.96-11.17Q14.96-12.03 14.14-13.89L14.14-13.89L14.14-13.89Q13.32-15.74 12.64-20.18L12.64-20.18L12.64-20.18Q11.95-24.61 11.95-30.47L11.95-30.47L11.95-30.47Q11.95-39.96 14.26-46.68L14.26-46.68L14.26-46.68Q14.53-47.66 14.53-48.16L14.53-48.16L14.53-48.16Q14.53-48.67 14.02-48.83L14.02-48.83L14.02-48.83Q12.19-46.52 11.41-44.26L11.41-44.26L11.41-44.26Q9.96-40.12 9.10-33.05L9.10-33.05L9.10-33.05Q8.98-32.03 6.80-31.13L6.80-31.13L6.80-31.13Q8.98-30.16 9.10-29.14L9.10-29.14L9.10-29.14Q10.51-17.03 12.66-12.97L12.66-12.97L12.66-12.97Q13.44-11.52 14.38-10.35zM41.41-19.53L41.41-8.01L41.41-8.01Q43.67-9.41 43.67-12.97L43.67-12.97L43.67-15.20L43.67-15.20Q43.67-18.52 41.41-19.53L41.41-19.53zM50.51-8.09L50.63-7.30L50.51-8.09"/>
                    
                        </g>
                    
                        
                    </g>

                    


</svg>