<svg  id="big_logo" xmlns="http://www.w3.org/2000/svg" xml:space="preserve" width="90%" height="90%" version="1.1" style="shape-rendering:geometricPrecision; text-rendering:geometricPrecision; image-rendering:optimizeQuality; fill-rule:evenodd; clip-rule:evenodd"
                    viewBox="0 0 27778 27778"
                    xmlns:xlink="http://www.w3.org/1999/xlink">
                    
                    <g transform="translate(2000,0)">
                        <g id="duck">
                        <path transform = "scale(0.6), translate(6000, 2000)" fill="#ffffff" d="M18203 13525c1475,1277 2147,2360 2244,3623 112,1426 -180,2536 -865,3300 -908,1011 -2217,1062 -2225,1062l-6018 0c-621,0 -1225,-146 -1745,-422 -3761,-1992 -3749,-6375 -3619,-7903 375,580 1174,1490 2669,1946 1624,498 4231,-507 5640,-1149 143,-65 237,-205 245,-364 9,-163 -72,-315 -211,-397 -1115,-654 -1807,-1897 -1807,-3244 0,-649 162,-1290 467,-1852 67,-125 60,-276 -19,-396 -285,-432 -325,-847 -302,-1133 181,160 462,342 891,495 118,39 246,15 342,-63 702,-567 1575,-831 2459,-742 1533,152 2787,1363 3090,2962 -54,82 -197,903 -697,1825 -239,441 -312,814 -217,1109 32,98 78,174 125,230 -133,162 -283,316 -446,456 -95,80 -150,198 -151,325 -1,128 53,250 149,334zm2644 -3201c431,27 773,-126 994,-272 -4,343 -87,862 -479,1304 -476,537 -1283,821 -2400,845 -74,-68 -242,-310 107,-953 299,-552 493,-1111 605,-1491 191,253 541,527 1174,568zm-1849 2244c1209,-31 2099,-355 2642,-967 610,-688 594,-1522 559,-1848 -10,-90 -68,-165 -152,-196 -83,-30 -174,-11 -238,49 -121,115 -459,378 -937,347 -851,-55 -988,-586 -1052,-694 -304,-1801 -1710,-3174 -3434,-3345 -979,-99 -1950,194 -2717,824 -534,-190 -787,-426 -893,-552 -65,-75 -165,-106 -260,-82 -96,25 -169,101 -192,201 -68,321 -115,959 327,1642 -335,616 -512,1318 -512,2029 0,1478 763,2844 1990,3564 27,16 29,45 28,57 -1,16 -6,36 -29,46 -1362,621 -3871,1593 -5378,1132 -1494,-456 -2232,-1393 -2539,-1911 -72,-123 -207,-183 -344,-153 -137,31 -237,148 -250,289 -144,1425 -295,6244 3801,8414 574,304 1237,465 1919,465l6023 0c60,-2 1476,-52 2493,-1181 758,-842 1082,-2047 962,-3581 -104,-1351 -836,-2546 -2370,-3874 -20,-17 -22,-41 -22,-51 0,-11 3,-31 20,-45 206,-177 391,-373 553,-580z"/>
                    <path transform = "scale(0.6), translate(6000, 2000)" fill="#ffffff" d="M17714 9014c-195,0 -353,163 -353,362 0,200 158,362 353,362 195,0 353,-163 353,-362 0,-200 -158,-362 -353,-362z"/>              
                        </g>
                        
                        <defs>
                            <clipPath id="myClip">
                                <circle id="circ" transform="translate(20000, -13560)" cx="2000" cy="15000" r="40%" stroke="black" stroke-width="250" fill="none" fill-opacity="0" />
                            </clipPath>
                        </defs>

                        <g transform="translate(-10000,11500)" style="clip-path: url(#myClip);">
                            <path id = "wave_back" transform = "scale(70)" fill="#3f3a5c" fill-opacity="1" d="M132.84,47.66 C333.75,-26.34 403.72,98.98 506.99,76.28 L495.71,298.31 L134.53,298.31 Z"></path>
                            <path id = "wave_mid" transform = "scale(70)" fill="lightblue" fill-opacity="1" d="M138.48,79.24 C323.59,122.66 412.75,-7.59 497.40,39.76 L495.71,298.31 L134.53,298.31 Z"></path>
                            <path id = "wave_front" transform = "scale(70)" fill="#ffffff" fill-opacity="1" d="M132.05,38.78 C251.69,5.24 327.31,180.89 491.19,37.79 L486.11,282.53 L135.44,289.44 Z"></path>
                       </g>
                        <circle  transform="translate(10000, -2000)" cx="2000" cy="15000" r="40%" stroke="#ffffff" stroke-width="250" fill="red" fill-opacity="0" />
                    </g>

                    <animate 
                        xlink:href="#wave_front"
                        attributeName="d"
                        from="M132.05,38.78 C251.69,5.24 327.31,180.89 491.19,37.79 L486.11,282.53 L135.44,289.44 Z"
                        to="M132.05,38.78 C251.69,5.24 327.31,180.89 491.19,37.79 L486.11,282.53 L135.44,289.44 Z" 
                        dur="5s"
                        calcMode="linear"
                        repeatCount="indefinite"
                        values="M132.05,38.78 C251.69,5.24 327.31,180.89 491.19,37.79 L486.11,282.53 L135.44,289.44 Z; M132.05,38.78 C256.99,59.50 335.44,110.81 491.19,37.79 L486.11,282.53 L135.44,289.44 Z;  M132.05,38.78 C251.92,129.56 408.80,21.01 491.19,37.79 L486.11,282.53 L135.44,289.44 Z; M132.05,38.78 C256.99,59.50 335.44,110.81 491.19,37.79 L486.11,282.53 L135.44,289.44 Z; M132.05,38.78 C251.69,5.24 327.31,180.89 491.19,37.79 L486.11,282.53 L135.44,289.44 Z"
                        keyTimes="0; 0.25; 0.5; 0.75; 1"
                        fill="freeze" 
                        id="waveFront" />

                    <animate 
                        xlink:href="#wave_mid"
                        attributeName="d"
                        from="M138.48,79.24 C323.59,122.66 412.75,-7.59 497.40,39.76 L495.71,298.31 L134.53,298.31 Z"
                        to="M138.48,79.24 C323.59,122.66 412.75,-7.59 497.40,39.76 L495.71,298.31 L134.53,298.31 Z" 
                        dur="5s"
                        calcMode="linear"
                        repeatCount="indefinite"
                        values="M138.48,79.24 C323.59,122.66 412.75,-7.59 497.40,39.76 L495.71,298.31 L134.53,298.31 Z; M138.48,79.24 C221.44,84.18 357.44,-37.20 506.99,76.28 L495.71,298.31 L134.53,298.31 Z; M133.97,40.75 C333.75,-31.27 348.98,143.39 506.99,76.28 L495.71,298.31 L134.53,298.31 Z; M138.48,79.24 C221.44,84.18 357.44,-37.20 506.99,76.28 L495.71,298.31 L134.53,298.31 Z; M138.48,79.24 C323.59,122.66 412.75,-7.59 497.40,39.76 L495.71,298.31 L134.53,298.31 Z"
                        keyTimes="0; 0.25; 0.5; 0.75; 1"
                        fill="freeze" 
                        id="waveMid" />

                    <animate 
                        xlink:href="#wave_back"
                        attributeName="d"
                        from="M132.84,47.66 C333.75,-26.34 403.72,98.98 506.99,76.28 L495.71,298.31 L134.53,298.31 Z"
                        to="M132.84,47.66 C333.75,-26.34 403.72,98.98 506.99,76.28 L495.71,298.31 L134.53,298.31 Z" 
                        dur="5s"
                        calcMode="linear"
                        repeatCount="indefinite"
                        values="M132.84,47.66 C333.75,-26.34 403.72,98.98 506.99,76.28 L495.71,298.31 L134.53,298.31 Z; M135.10,65.43 C277.88,11.15 411.62,24.96 513.20,90.09 L495.71,298.31 L134.53,298.31 Z; M135.10,65.43 C286.34,88.13 371.56,-58.91 513.20,90.09 L495.71,298.31 L134.53,298.31 Z; M135.10,65.43 C277.88,11.15 411.62,24.96 513.20,90.09 L495.71,298.31 L134.53,298.31 Z; M132.84,47.66 C333.75,-26.34 403.72,98.98 506.99,76.28 L495.71,298.31 L134.53,298.31 Z"
                        keyTimes="0; 0.25; 0.5; 0.75; 1"
                        fill="freeze" 
                        id="waveBack" />


</svg>