<svg xmlns="http://www.w3.org/2000/svg" xmlns:xlink="http://www.w3.org/1999/xlink" height="800" width="1200" viewBox="-77.25 -47.75625 669.5 286.5375"><use xlink:href="#a" transform="translate(-10.106)" width="100%" height="100%"/><g id="a" fill="none" stroke="#231f20" stroke-width="11.409"><path d="M169.748 158.034h-23.374l10.939-51.469c.575-2.763.863-4.835.863-6.217 0-2.649-1.324-4.26-3.973-4.837-1.035-.345-3.396-.517-7.08-.517h-18.798l-12.672-.002-2.498 11.489-10.938 51.553H78.555l17.617-82.902h23.662c4.632-.065 1.24 0 15.544 0h24.698c8.866 0 15.026.892 18.48 2.677 3.454 1.785 5.182 5.21 5.182 10.276 0 2.763-.46 6.276-1.381 10.536zm97.322-.172h-23.662c-6.13-.095-1.345 0-15.543 0h-24.7c-8.864 0-15.024-.864-18.479-2.591-3.454-1.727-5.181-5.181-5.181-10.363 0-2.648.46-6.16 1.382-10.535l12.607-59.414h23.375l-10.939 51.469c-.576 2.879-.864 5.009-.864 6.39 0 2.534 1.318 4.173 3.972 4.836 1.029.258 3.398.346 7.081.346h18.799l12.724.024 2.445-11.596 10.938-51.469h23.663zm67.038 27.458H295.07c-8.847 0-15.026-.892-18.48-2.676-3.455-1.785-5.182-5.211-5.182-10.278 0-2.762.485-6.27 1.382-10.534l24.086-114.48 23.659.044-5.838 27.553 22.644-.008-4.29 20.015h-22.465l-12.579 58.93c-.581 2.762-.862 4.837-.862 6.218 0 2.647 1.349 4.19 3.97 4.837 1.05.257 3.397.517 7.083.517h30.227z"/><path d="M400.058 158.034h-49.225c-8.866 0-15.027-.892-18.48-2.677-3.454-1.785-5.182-5.21-5.182-10.276 0-2.764.46-6.275 1.382-10.535l7.6-35.925c2.073-9.672 5.21-16.005 9.413-18.999 4.202-2.993 11.83-4.49 22.883-4.49h49.225l-4.318 19.862h-40.3c-5.412 0-8.866.517-10.363 1.554-2.073 1.382-3.627 4.72-4.692 9.989l-4.232 20.063c-.576 2.763-.864 4.837-.864 6.218 0 2.648 1.325 4.26 3.974 4.836 1.035.346 3.396.519 7.08.519h40.243zm95.249 0h-23.375l10.939-51.469c.576-2.763.864-4.835.864-6.217 0-2.649-1.344-4.18-3.973-4.837-1.06-.263-3.369-.517-7.052-.517h-18.77l-12.66.002-2.51 11.598-10.994 51.44h-23.663l23.663-110.709h23.488L445.33 75.13c5.022-.01 1.26.002 15.577.002h24.727c8.866 0 15.026.892 18.48 2.677 3.455 1.785 5.182 5.21 5.182 10.276 0 2.763-.46 6.276-1.382 10.536z"/></g><path d="M90.102 103.639l-3.145 15.038-46.37 49.185 21.216-67.504L0 70.636l68.502-.765L77.332 0l23.023 69.87-4.412 4.922-3.088 7.638-2.753 21.209" fill="#231f20" fill-rule="evenodd"/><path d="M169.75 158.035h-23.375l10.94-51.47c.574-2.762.862-4.835.862-6.217 0-2.648-1.323-4.26-3.972-4.836-1.037-.345-3.397-.517-7.081-.517h-31.47l-2.498 11.488-10.938 51.553H78.556l17.616-82.902h23.662c4.633-.065 1.24 0 15.545 0h24.699c8.866 0 15.024.892 18.479 2.677 3.454 1.785 5.183 5.21 5.183 10.277 0 2.762-.461 6.275-1.382 10.535l-12.609 59.413m97.324-.174H243.41c-6.13-.095-1.345 0-15.543 0h-24.7c-8.865 0-15.026-.863-18.48-2.59-3.455-1.728-5.18-5.182-5.18-10.363 0-2.649.46-6.161 1.38-10.536l12.608-59.413h23.374l-10.938 51.468c-.576 2.879-.864 5.01-.864 6.39 0 2.534 1.318 4.174 3.973 4.837 1.028.257 3.398.345 7.08.345h18.799l12.724.024 2.445-11.597 10.94-51.467h23.661l-17.616 82.902m67.037 27.458h-39.037c-8.848 0-15.027-.892-18.48-2.676-3.455-1.785-5.182-5.21-5.182-10.277 0-2.763.484-6.27 1.38-10.535l24.086-114.48 23.66.045L314.7 74.95l22.644-.01-4.292 20.014h-22.465l-12.578 58.93c-.58 2.762-.863 4.837-.863 6.219 0 2.647 1.349 4.19 3.971 4.836 1.049.257 3.398.517 7.082.517h30.23l-4.318 19.863" fill="#000" fill-rule="evenodd"/><path d="M400.059 158.035h-49.223c-8.866 0-15.027-.893-18.482-2.677-3.453-1.785-5.181-5.21-5.181-10.277 0-2.764.46-6.275 1.381-10.535l7.6-35.925c2.073-9.671 5.211-16.004 9.413-18.998 4.202-2.993 11.832-4.49 22.885-4.49h49.225l-4.32 19.862h-40.3c-5.41 0-8.865.517-10.362 1.553-2.072 1.383-3.626 4.721-4.693 9.99l-4.23 20.063c-.576 2.763-.864 4.836-.864 6.217 0 2.649 1.323 4.26 3.972 4.837 1.037.345 3.396.518 7.082.518h40.242l-4.145 19.861m95.251.001h-23.376l10.94-51.47c.575-2.762.863-4.835.863-6.217 0-2.648-1.343-4.18-3.972-4.836-1.058-.264-3.37-.517-7.052-.517h-31.43l-2.51 11.597-10.996 51.44h-23.661l23.661-110.708h23.49l-5.934 27.805c5.022-.01 1.26 0 15.577 0h24.727c8.867 0 15.027.892 18.48 2.677 3.455 1.785 5.182 5.21 5.182 10.276 0 2.763-.461 6.276-1.382 10.536L495.31 158.03" fill="#000" fill-rule="evenodd"/><path d="M79.678 24.447l16.28 50.414 30.898 2.628-33.042 11.245-.79 23.308-4.943-3.573-34.952 37.86 15.807-49.043-46.81-21.542 51.53-.121 6.022-51.176" fill="#fff" fill-rule="evenodd"/></svg>