

<svg xmlns="http://www.w3.org/2000/svg" style="margin:auto;background:rgba(NaN, NaN, NaN, 0);display:block;" width="300" height="800" preserveAspectRatio="xMidYMid">

<g style="transform-origin: 230px 290px;">
    <g id="arrows" >
   
    <g>
        <path transform="translate(0,0)"  d="M282.082,76.511l-14.274-14.273c-1.902-1.906-4.093-2.856-6.57-2.856c-2.471,0-4.661,0.95-6.563,2.856L142.466,174.441
		L30.262,62.241c-1.903-1.906-4.093-2.856-6.567-2.856c-2.475,0-4.665,0.95-6.567,2.856L2.856,76.515C0.95,78.417,0,80.607,0,83.082
		c0,2.473,0.953,4.663,2.856,6.565l133.043,133.046c1.902,1.903,4.093,2.854,6.567,2.854s4.661-0.951,6.562-2.854L282.082,89.647
		c1.902-1.903,2.847-4.093,2.847-6.565C284.929,80.607,283.984,78.417,282.082,76.511z"/>
	</g>
   
    
    <animateTransform attributeName="transform"
            type="translate"
            from="0 0 "
            to="0 350 "
            begin="0s"
            values="0 0; 0 350; 0 0"
            keyTimes="0;  0.5; 1"
            dur="2s"
            repeatCount="indefinite"
        />
    </g>
</g>

    
 


</svg>