<?xml version="1.0" encoding="UTF-8" standalone="no"?>
<svg width="24px" height="24px" viewBox="0 0 256 70" version="1.1" xmlns="http://www.w3.org/2000/svg" xmlns:xlink="http://www.w3.org/1999/xlink" preserveAspectRatio="xMidYMid" >
	<g >
		<path transform="translate(-450, -100), scale(2.7)" d="M244.310353,13.7926409 L202.77611,58.6961913 L254.974584,34.6138824 C253.430265,26.6468596 249.649391,19.4828321 244.310353,13.7926409 Z M213.493581,0.435983684 C207.739201,0.435983684 202.256681,1.59013218 197.257468,3.67313736 L191.684328,50.637038 L219.533667,0.872722535 C217.560161,0.589534519 215.545121,0.435983684 213.493581,0.435983684 Z M255.388416,37.2010881 L205.927427,64.8805141 L252.332503,59.3740805 C254.532559,54.257817 255.755931,48.6217462 255.755931,42.6987115 C255.755931,40.8334464 255.622518,39.0021639 255.388416,37.2010881 Z M237.15287,77.7221467 C242.679441,73.9815477 247.268346,68.9647146 250.509275,63.0983176 L207.012855,71.7361814 L237.15287,77.7221467 Z M222.080345,1.31072 L197.868399,53.7886059 L242.782018,12.2468119 C237.149723,6.82848117 230.025972,2.95069327 222.080345,1.31072 Z M217.026005,84.802854 C221.70553,84.4152011 226.168573,83.2711215 230.291791,81.4826318 L205.927552,78.5915969 L217.026005,84.802854 Z M174.96969,25.3246862 C173.069184,29.5322308 171.837001,34.1022561 171.409073,38.9076421 L177.972742,50.637919 L174.96969,25.3246862 Z M193.595155,5.41065317 C187.631845,8.59997954 182.526909,13.1762979 178.703241,18.710421 L184.828912,49.5514839 L193.595155,5.41065317 Z" fill="#000"></path>
	</g>
</svg>
